<svg width="300" height="199" viewBox="0 0 300 199" fill="none" xmlns="http://www.w3.org/2000/svg">
<g clip-path="url(#clip0_3_274)">
<rect y="77" width="40" height="122" rx="6" fill="#448DFB"/>
<g style="mix-blend-mode:multiply" opacity="0.5">
<rect y="77" width="40" height="40.6667" fill="#777777"/>
</g>
<g style="mix-blend-mode:multiply" opacity="0.15">
<rect y="117.667" width="40" height="40.6667" fill="#777777"/>
</g>
</g>
<g clip-path="url(#clip1_3_274)">
<rect x="52" y="32" width="40" height="167" rx="6" fill="#448DFB"/>
<g style="mix-blend-mode:multiply" opacity="0.5">
<rect x="52" y="32" width="40" height="55.6667" fill="#777777"/>
</g>
<g style="mix-blend-mode:multiply" opacity="0.15">
<rect x="52" y="87.6667" width="40" height="55.6667" fill="#777777"/>
</g>
</g>
<g clip-path="url(#clip2_3_274)">
<rect x="104" width="40" height="199" rx="6" fill="#448DFB"/>
<g style="mix-blend-mode:multiply" opacity="0.5">
<rect x="104" width="40" height="66.3333" fill="#777777"/>
</g>
<g style="mix-blend-mode:multiply" opacity="0.15">
<rect x="104" y="66.3333" width="40" height="66.3333" fill="#777777"/>
</g>
</g>
<g clip-path="url(#clip3_3_274)">
<rect x="156" y="88" width="40" height="111" rx="6" fill="#448DFB"/>
<g style="mix-blend-mode:multiply" opacity="0.5">
<rect x="156" y="88" width="40" height="37" fill="#777777"/>
</g>
<g style="mix-blend-mode:multiply" opacity="0.15">
<rect x="156" y="125" width="40" height="37" fill="#777777"/>
</g>
</g>
<g clip-path="url(#clip4_3_274)">
<rect x="208" y="47" width="40" height="152" rx="6" fill="#448DFB"/>
<g style="mix-blend-mode:multiply" opacity="0.5">
<rect x="208" y="47" width="40" height="50.6667" fill="#777777"/>
</g>
<g style="mix-blend-mode:multiply" opacity="0.15">
<rect x="208" y="97.6667" width="40" height="50.6667" fill="#777777"/>
</g>
</g>
<rect x="260" y="110" width="40" height="89" rx="6" fill="#448DFB"/>
<g style="mix-blend-mode:multiply" opacity="0.5">
<rect x="260" y="110" width="40" height="29.6667" fill="#777777"/>
</g>
<g style="mix-blend-mode:multiply" opacity="0.15">
<rect x="260" y="139.667" width="40" height="29.6667" fill="#777777"/>
</g>
<defs>
<clipPath id="clip0_3_274">
<rect y="77" width="40" height="122" rx="6" fill="white"/>
</clipPath>
<clipPath id="clip1_3_274">
<rect x="52" y="32" width="40" height="167" rx="6" fill="white"/>
</clipPath>
<clipPath id="clip2_3_274">
<rect x="104" width="40" height="199" rx="6" fill="white"/>
</clipPath>
<clipPath id="clip3_3_274">
<rect x="156" y="88" width="40" height="111" rx="6" fill="white"/>
</clipPath>
<clipPath id="clip4_3_274">
<rect x="208" y="47" width="40" height="152" rx="6" fill="white"/>
</clipPath>
</defs>
</svg>
